<?xml version="1.0" encoding="UTF-8"?><svg xmlns="http://www.w3.org/2000/svg" xmlns:xlink="http://www.w3.org/1999/xlink" width="375" zoomAndPan="magnify" viewBox="0 0 375 374.999991" height="374.999991" preserveAspectRatio="xMidYMid meet" version="1.0"><defs><clipPath id="clip-0"><path d="M 177.535156 35.449219 L 347.785156 35.449219 L 347.785156 177.949219 L 177.535156 177.949219 Z M 177.535156 35.449219 " clip-rule="nonzero"/></clipPath><clipPath id="clip-1"><path d="M 27.207031 30.617188 L 177.207031 30.617188 L 177.207031 173.117188 L 27.207031 173.117188 Z M 27.207031 30.617188 " clip-rule="nonzero"/></clipPath><clipPath id="clip-2"><path d="M 27.207031 194.382812 L 175.707031 194.382812 L 175.707031 344.382812 L 27.207031 344.382812 Z M 27.207031 194.382812 " clip-rule="nonzero"/></clipPath><clipPath id="clip-3"><path d="M 199.636719 194.382812 L 325.636719 194.382812 L 325.636719 344.382812 L 199.636719 344.382812 Z M 199.636719 194.382812 " clip-rule="nonzero"/></clipPath></defs><g clip-path="url(#clip-0)"><path fill="rgb(100%, 100%, 100%)" d="M 230.960938 177.949219 L 260.890625 106.207031 L 290.082031 177.949219 L 347.640625 177.949219 L 287.53125 35.449219 L 237.785156 35.449219 L 177.679688 177.949219 Z M 230.960938 177.949219 " fill-opacity="1" fill-rule="nonzero"/></g><g clip-path="url(#clip-1)"><path fill="rgb(100%, 100%, 100%)" d="M 154.71875 154.140625 C 169.378906 141.359375 177.125 123.304688 177.125 101.867188 C 177.125 80.429688 169.378906 62.371094 154.71875 49.589844 C 140.46875 37.222656 120.617188 30.625 97.386719 30.625 L 27.207031 30.625 L 27.207031 173.105469 L 97.386719 173.105469 C 120.617188 173.105469 140.46875 166.507812 154.71875 154.140625 Z M 95.492188 74.160156 C 112.957031 74.160156 123.335938 84.550781 123.335938 101.867188 C 123.335938 119.179688 112.957031 129.570312 95.492188 129.570312 L 80.664062 129.570312 L 80.664062 74.160156 Z M 95.492188 74.160156 " fill-opacity="1" fill-rule="nonzero"/></g><g clip-path="url(#clip-2)"><path fill="rgb(100%, 100%, 100%)" d="M 168.578125 252.023438 C 168.578125 217.039062 141.640625 194.382812 99.847656 194.382812 L 27.382812 194.382812 L 27.382812 344.382812 L 83.773438 344.382812 L 83.773438 308.878906 L 90.03125 308.878906 L 114.097656 344.382812 L 175.527344 344.382812 L 143.8125 297.855469 C 159.886719 287.960938 168.578125 271.902344 168.578125 252.023438 Z M 83.773438 239.785156 L 96.808594 239.785156 C 103.238281 239.785156 111.839844 241.085938 111.839844 252.023438 C 111.839844 262.960938 103.238281 264.261719 96.808594 264.261719 L 83.773438 264.261719 Z M 83.773438 239.785156 " fill-opacity="1" fill-rule="nonzero"/></g><g clip-path="url(#clip-3)"><path fill="rgb(100%, 100%, 100%)" d="M 325.636719 299.667969 L 255.046875 299.667969 L 255.046875 289.804688 L 314.796875 289.804688 L 314.796875 246.972656 L 255.046875 246.972656 L 255.046875 239.101562 L 323.035156 239.101562 L 323.035156 194.628906 L 199.636719 194.628906 L 199.636719 344.140625 L 325.636719 344.140625 Z M 325.636719 299.667969 " fill-opacity="1" fill-rule="nonzero"/></g></svg>